<svg id="Camada_1" data-name="Camada 1" xmlns="http://www.w3.org/2000/svg" viewBox="0 0 258.2 56"><defs><style>.cls-1,.cls-2{fill:#121212;}.cls-2{fill-rule:evenodd;}</style></defs><path class="cls-1" d="M76.46,23.1a6,6,0,0,1-2-.31A4.19,4.19,0,0,1,73,21.91a4.07,4.07,0,0,1-1-1.37,4.68,4.68,0,0,1-.31-1.74h2.51a1.94,1.94,0,0,0,.59,1.45,2.32,2.32,0,0,0,1.62.55,2.53,2.53,0,0,0,1.66-.47,1.46,1.46,0,0,0,.55-1.11,1.08,1.08,0,0,0-.51-.95,5.28,5.28,0,0,0-1.26-.58c-.5-.19-1.06-.36-1.66-.53a7.48,7.48,0,0,1-1.64-.69,4.27,4.27,0,0,1-1.26-1.13,3.23,3.23,0,0,1-.5-1.87A3.44,3.44,0,0,1,72.15,12a3.88,3.88,0,0,1,.93-1.2A4.8,4.8,0,0,1,74.53,10a5.58,5.58,0,0,1,1.93-.32,4.87,4.87,0,0,1,1.79.32,4.11,4.11,0,0,1,1.4.88,3.93,3.93,0,0,1,.91,1.35,4.41,4.41,0,0,1,.31,1.65H78.46a1.82,1.82,0,0,0-.53-1.38,2,2,0,0,0-1.47-.5,2.14,2.14,0,0,0-1.47.46,1.32,1.32,0,0,0-.53,1,1,1,0,0,0,.51.91,5.52,5.52,0,0,0,1.26.56c.5.17,1,.35,1.64.53a7.53,7.53,0,0,1,1.66.73,4.18,4.18,0,0,1,1.26,1.22,3.42,3.42,0,0,1,.5,1.94,2.9,2.9,0,0,1-.36,1.38,3.81,3.81,0,0,1-1,1.22,5.06,5.06,0,0,1-1.54.86A5.78,5.78,0,0,1,76.46,23.1Zm10.39,0a3.61,3.61,0,0,1-1.33-.23,3,3,0,0,1-1-.71,3.63,3.63,0,0,1-.67-1.09,4.25,4.25,0,0,1-.23-1.43V15.55H82.12v-2h.63a1,1,0,0,0,1.16-1.15V11H86v2.31h2.1v2.21H86v4a1.24,1.24,0,0,0,1.36,1.37h.27l.19,0L88,20.8v2.1a2.31,2.31,0,0,1-.34.1A2.85,2.85,0,0,1,86.85,23.1Zm6.92,0a4.48,4.48,0,0,1-1.58-.27A3.69,3.69,0,0,1,91,22a3.8,3.8,0,0,1-.8-1.3,5,5,0,0,1-.28-1.7V13.34H92.3v5.35a2.14,2.14,0,0,0,.55,1.54,1.94,1.94,0,0,0,1.44.57,1.88,1.88,0,0,0,1.43-.57,2.11,2.11,0,0,0,.57-1.54V13.34H98.7V23H96.92l-.42-.94a5.29,5.29,0,0,1-.78.52,4.34,4.34,0,0,1-.86.38A3.78,3.78,0,0,1,93.77,23.1Zm11,0a4.2,4.2,0,0,1-1.72-.35,4.79,4.79,0,0,1-1.45-1,5.48,5.48,0,0,1-1-5.52,5.07,5.07,0,0,1,1-1.56,4.32,4.32,0,0,1,1.45-1,4.07,4.07,0,0,1,1.72-.38,3.12,3.12,0,0,1,1,.17,6.33,6.33,0,0,1,.8.32,4.16,4.16,0,0,1,.67.46V9.77h2.42V23H108l-.42-.94a4.45,4.45,0,0,1-.74.52,4.09,4.09,0,0,1-.86.38A3.93,3.93,0,0,1,104.8,23.1Zm.31-2.3a2.3,2.3,0,0,0,1.73-.72,2.63,2.63,0,0,0,.69-1.91,2.63,2.63,0,0,0-.69-1.91,2.45,2.45,0,0,0-3.45,0,2.63,2.63,0,0,0-.69,1.91,2.63,2.63,0,0,0,.69,1.91A2.31,2.31,0,0,0,105.11,20.8Zm11,2.3a4.76,4.76,0,0,1-1.87-.37,5.12,5.12,0,0,1-2.58-2.63,5,5,0,0,1-.38-1.93,4.82,4.82,0,0,1,.38-1.91,5.59,5.59,0,0,1,1-1.58,5.35,5.35,0,0,1,1.53-1,4.62,4.62,0,0,1,1.87-.4,4.5,4.5,0,0,1,3.26,1.37,4.67,4.67,0,0,1,1,1.57,5.2,5.2,0,0,1,.37,2,2,2,0,0,1,0,.34l0,.29c0,.11,0,.22,0,.31h-6.72a2.24,2.24,0,0,0,.71,1.2,2.19,2.19,0,0,0,1.49.49,2.57,2.57,0,0,0,.8-.11,2.32,2.32,0,0,0,.57-.25,1.72,1.72,0,0,0,.42-.38h2.52a4.18,4.18,0,0,1-.59,1.09,4.62,4.62,0,0,1-.94,1,5,5,0,0,1-1.27.69A4.1,4.1,0,0,1,116.14,23.1Zm2.31-5.67a2.43,2.43,0,0,0-.77-1.34,2.21,2.21,0,0,0-1.54-.54,2.25,2.25,0,0,0-1.55.54,2.48,2.48,0,0,0-.76,1.34Zm3.88-4.09h1.79l.42.94a5.29,5.29,0,0,1,.78-.52,5.71,5.71,0,0,1,.84-.36,3.5,3.5,0,0,1,1.11-.17,4,4,0,0,1,1.57.3,3,3,0,0,1,1.22.82,3.36,3.36,0,0,1,.8,1.28,4.56,4.56,0,0,1,.29,1.7V23h-2.41V17.65a2,2,0,0,0-.57-1.52,1.85,1.85,0,0,0-1.43-.58,1.94,1.94,0,0,0-1.45.58,2.11,2.11,0,0,0-.54,1.52V23h-2.42Zm14.82,9.76a3.61,3.61,0,0,1-1.33-.23,3,3,0,0,1-1-.71,3.63,3.63,0,0,1-.67-1.09,4.25,4.25,0,0,1-.23-1.43V15.55h-1.47v-2h.63a1,1,0,0,0,1.16-1.15V11h2.1v2.31h2.1v2.21h-2.1v4a1.44,1.44,0,0,0,.35,1,1.42,1.42,0,0,0,1,.36H138l.18,0,.17-.06v2.1L138,23A2.92,2.92,0,0,1,137.15,23.1Zm6.3,0a4.24,4.24,0,0,1-2.88-.86A3.37,3.37,0,0,1,139.46,20h2.31a1.33,1.33,0,0,0,.46.82,1.44,1.44,0,0,0,1,.34,1.46,1.46,0,0,0,1-.31,1,1,0,0,0,.38-.74.58.58,0,0,0-.38-.53,4.79,4.79,0,0,0-.9-.33l-1.2-.34a4.65,4.65,0,0,1-1.17-.48,3.12,3.12,0,0,1-.93-.84,2.44,2.44,0,0,1-.35-1.37,2.63,2.63,0,0,1,.23-1.11,2.72,2.72,0,0,1,.71-.94,3.35,3.35,0,0,1,1.09-.63,3.8,3.8,0,0,1,1.43-.26,3.9,3.9,0,0,1,2.67.84,3.34,3.34,0,0,1,1.11,2.1H144.6a1.36,1.36,0,0,0-.46-.62,1.32,1.32,0,0,0-.9-.32,1.27,1.27,0,0,0-.86.27.89.89,0,0,0-.3.67.58.58,0,0,0,.36.53,6.56,6.56,0,0,0,.92.36l1.18.33a4.26,4.26,0,0,1,1.2.51,2.9,2.9,0,0,1,.9.88,2.34,2.34,0,0,1,.38,1.39,2.67,2.67,0,0,1-.26,1.13,2.62,2.62,0,0,1-.71.92,3.56,3.56,0,0,1-1.13.65A4.28,4.28,0,0,1,143.45,23.1Zm8,0a3.5,3.5,0,0,1-2.41-.75,2.58,2.58,0,0,1-.84-2,3.13,3.13,0,0,1,.27-1.31,2.57,2.57,0,0,1,1-1,5.35,5.35,0,0,1,1.76-.67,12.71,12.71,0,0,1,2.77-.25,1.65,1.65,0,0,0-.44-1.24,1.49,1.49,0,0,0-1.13-.44,1.61,1.61,0,0,0-.78.17,1.81,1.81,0,0,0-.44.36,1.1,1.1,0,0,0-.25.52h-2.42a4.1,4.1,0,0,1,.38-1.26,3.46,3.46,0,0,1,.84-1,4,4,0,0,1,1.24-.69,4.74,4.74,0,0,1,1.64-.28,3.77,3.77,0,0,1,1.51.3,3.46,3.46,0,0,1,1.2.78,3.62,3.62,0,0,1,.78,1.19,4,4,0,0,1,.29,1.51v6h-1.79l-.42-.94a4.81,4.81,0,0,1-.73.52,4.62,4.62,0,0,1-.86.38A4,4,0,0,1,151.42,23.1Zm.42-1.88a2.13,2.13,0,0,0,1.52-.55,1.93,1.93,0,0,0,.58-1.45V18.8a10.08,10.08,0,0,0-1.72.11,3.13,3.13,0,0,0-1,.27,1,1,0,0,0-.48.42,1.29,1.29,0,0,0-.13.57,1,1,0,0,0,.36.73A1.32,1.32,0,0,0,151.84,21.22Zm6.51-7.88h1.78l.42.94a4.12,4.12,0,0,1,.65-.52,4.82,4.82,0,0,1,.72-.36,2.54,2.54,0,0,1,.94-.17,3.61,3.61,0,0,1,1.26.21,4.06,4.06,0,0,1,.86.42,2.59,2.59,0,0,1,.61.63,4.47,4.47,0,0,1,.78-.63,5.43,5.43,0,0,1,.9-.42,3.54,3.54,0,0,1,3.68.8,4.22,4.22,0,0,1,.94,3V23h-2.41V17.43a1.89,1.89,0,0,0-.49-1.38,1.42,1.42,0,0,0-1.09-.5,1.47,1.47,0,0,0-1.11.5,2,2,0,0,0-.46,1.38V23h-2.42V17.43a1.93,1.93,0,0,0-.48-1.38,1.42,1.42,0,0,0-1.09-.5,1.49,1.49,0,0,0-1.12.5,2,2,0,0,0-.46,1.38V23h-2.41Zm19,9.76a4.24,4.24,0,0,1-2.88-.86A3.41,3.41,0,0,1,173.36,20h2.31a1.38,1.38,0,0,0,.46.82,1.44,1.44,0,0,0,1,.34,1.5,1.5,0,0,0,1-.31,1,1,0,0,0,.38-.74.6.6,0,0,0-.38-.53,5.07,5.07,0,0,0-.9-.33l-1.2-.34a4.87,4.87,0,0,1-1.18-.48,3.21,3.21,0,0,1-.92-.84,2.36,2.36,0,0,1-.36-1.37,2.79,2.79,0,0,1,.23-1.11,2.75,2.75,0,0,1,.72-.94,3.25,3.25,0,0,1,1.09-.63,3.76,3.76,0,0,1,1.43-.26,3.86,3.86,0,0,1,2.66.84,3.41,3.41,0,0,1,1.12,2.1h-2.31a1.33,1.33,0,0,0-.47-.62,1.46,1.46,0,0,0-1.76-.05.88.88,0,0,0-.29.67.57.57,0,0,0,.35.53,6.73,6.73,0,0,0,.93.36l1.17.33a4,4,0,0,1,1.2.51,2.9,2.9,0,0,1,.9.88,2.34,2.34,0,0,1,.38,1.39,2.65,2.65,0,0,1-.25,1.13,2.88,2.88,0,0,1-.71.92,3.51,3.51,0,0,1-1.14.65A4.2,4.2,0,0,1,177.35,23.1Zm5.14-13.33h2.42v7.56l2.94-4h2.73L187.11,18,191,23h-2.73l-3.36-4.41V23h-2.42Zm9.25,3.57h2.41V23h-2.41ZM193,12.19a1.39,1.39,0,0,1-1-.4,1.41,1.41,0,0,1-.4-1,1.3,1.3,0,0,1,.4-.94,1.34,1.34,0,0,1,1-.43,1.46,1.46,0,0,1,1.36,1.37,1.34,1.34,0,0,1-.42,1A1.3,1.3,0,0,1,193,12.19Zm3.24,1.15H198l.42.94a3.67,3.67,0,0,1,.73-.52,6.2,6.2,0,0,1,.87-.36,3.58,3.58,0,0,1,1.13-.17,4.07,4.07,0,0,1,1.72.38,4.15,4.15,0,0,1,1.43,1,4.73,4.73,0,0,1,1,1.56,5.3,5.3,0,0,1,0,3.94,4.92,4.92,0,0,1-1,1.58,4.59,4.59,0,0,1-1.43,1,4.2,4.2,0,0,1-1.72.35,3.47,3.47,0,0,1-1.07-.14,7.39,7.39,0,0,1-.78-.32,3.68,3.68,0,0,1-.67-.48v4.2h-2.42Zm4.63,7.46a2.31,2.31,0,0,0,1.72-.72,2.63,2.63,0,0,0,.69-1.91,2.63,2.63,0,0,0-.69-1.91,2.45,2.45,0,0,0-3.45,0,2.63,2.63,0,0,0-.69,1.91,2.63,2.63,0,0,0,.69,1.91A2.3,2.3,0,0,0,200.87,20.8Zm6.4-7.46h1.79l.42.94a5.29,5.29,0,0,1,.78-.52,5.71,5.71,0,0,1,.84-.36,3.5,3.5,0,0,1,1.11-.17,4,4,0,0,1,1.57.3,3,3,0,0,1,1.22.82,3.36,3.36,0,0,1,.8,1.28,4.56,4.56,0,0,1,.29,1.7V23h-2.41V17.65a2,2,0,0,0-.57-1.52,1.85,1.85,0,0,0-1.43-.58,1.91,1.91,0,0,0-1.44.58,2.07,2.07,0,0,0-.55,1.52V23h-2.42Zm13.66,9.76a3.5,3.5,0,0,1-2.41-.75,2.58,2.58,0,0,1-.84-2,3.13,3.13,0,0,1,.27-1.31,2.57,2.57,0,0,1,1-1,5.26,5.26,0,0,1,1.76-.67,12.71,12.71,0,0,1,2.77-.25,1.69,1.69,0,0,0-.44-1.24,1.51,1.51,0,0,0-1.13-.44,1.58,1.58,0,0,0-.78.17,1.81,1.81,0,0,0-.44.36,1.1,1.1,0,0,0-.25.52H218a3.84,3.84,0,0,1,.38-1.26,3.46,3.46,0,0,1,.84-1,4,4,0,0,1,1.24-.69,4.74,4.74,0,0,1,1.64-.28,3.77,3.77,0,0,1,1.51.3,3.42,3.42,0,0,1,2,2,3.8,3.8,0,0,1,.3,1.51v6h-1.79l-.42-.94a4.81,4.81,0,0,1-.73.52,4.62,4.62,0,0,1-.86.38A4,4,0,0,1,220.93,23.1Zm.42-1.88a2.09,2.09,0,0,0,1.51-.55,1.9,1.9,0,0,0,.59-1.45V18.8a10,10,0,0,0-1.72.11,3.06,3.06,0,0,0-1,.27.92.92,0,0,0-.48.42,1.17,1.17,0,0,0-.13.57,1,1,0,0,0,.36.73A1.32,1.32,0,0,0,221.35,21.22Zm10.49,1.88a4.24,4.24,0,0,1-1.72-.35,4.92,4.92,0,0,1-1.45-1,5.48,5.48,0,0,1-1-1.58,5.25,5.25,0,0,1,1-5.5,4.43,4.43,0,0,1,1.45-1,4.11,4.11,0,0,1,1.72-.38,3,3,0,0,1,1,.17,5.77,5.77,0,0,1,.8.32,3.76,3.76,0,0,1,.67.46V9.77h2.42V23H235l-.42-.94a4.81,4.81,0,0,1-.73.52A4.62,4.62,0,0,1,233,23,4,4,0,0,1,231.84,23.1Zm.32-2.3a2.28,2.28,0,0,0,1.72-.72,2.63,2.63,0,0,0,.69-1.91,2.63,2.63,0,0,0-.69-1.91,2.44,2.44,0,0,0-3.44,0,2.64,2.64,0,0,0-.7,1.91,2.64,2.64,0,0,0,.7,1.91A2.28,2.28,0,0,0,232.16,20.8Zm11,2.3a4.73,4.73,0,0,1-1.87-.37,5.33,5.33,0,0,1-1.53-1.07,5.22,5.22,0,0,1-1-1.56,4.78,4.78,0,0,1-.38-1.93,4.66,4.66,0,0,1,.38-1.91,5.19,5.19,0,0,1,1-1.58,5.08,5.08,0,0,1,1.53-1,4.58,4.58,0,0,1,1.87-.4,4.46,4.46,0,0,1,1.78.36,4.54,4.54,0,0,1,1.47,1,4.67,4.67,0,0,1,1,1.57,5.2,5.2,0,0,1,.38,2c0,.11,0,.22,0,.34l0,.29a2.61,2.61,0,0,1,0,.31H241a2.2,2.2,0,0,0,.72,1.2,2.17,2.17,0,0,0,1.49.49,2.62,2.62,0,0,0,.8-.11,2.24,2.24,0,0,0,.56-.25,1.72,1.72,0,0,0,.42-.38h2.52a3.9,3.9,0,0,1-.59,1.09,4.39,4.39,0,0,1-.94,1,4.76,4.76,0,0,1-1.26.69A4.13,4.13,0,0,1,243.19,23.1Zm2.31-5.67a2.45,2.45,0,0,0-.78-1.34,2.17,2.17,0,0,0-1.53-.54,2.28,2.28,0,0,0-1.56.54,2.46,2.46,0,0,0-.75,1.34Zm3.88-4.09h1.78l.42.94a5.29,5.29,0,0,1,.78-.52,6.82,6.82,0,0,1,.84-.36,3.59,3.59,0,0,1,1.11-.17,4,4,0,0,1,1.58.3,3.17,3.17,0,0,1,1.22.82,3.46,3.46,0,0,1,.79,1.28,4.56,4.56,0,0,1,.3,1.7V23h-2.42V17.65a2,2,0,0,0-.57-1.52,1.83,1.83,0,0,0-1.42-.58,1.93,1.93,0,0,0-1.45.58,2.07,2.07,0,0,0-.55,1.52V23h-2.41Zm-177,22.21h1.58V45H72.36Zm.78-1.68a1,1,0,0,1-.71-.27,1,1,0,0,1-.28-.72,1,1,0,0,1,.28-.71,1,1,0,0,1,1.72.71,1,1,0,0,1-.29.72A1,1,0,0,1,73.14,33.87ZM84.65,45.1a5.36,5.36,0,0,1-1.85-.29A3.91,3.91,0,0,1,81.41,44a4,4,0,0,1-.88-1.28,4.36,4.36,0,0,1-.29-1.59h1.68A2.47,2.47,0,0,0,82.61,43a2.84,2.84,0,0,0,2,.65,3.07,3.07,0,0,0,2-.6,1.93,1.93,0,0,0,.69-1.5,1.54,1.54,0,0,0-.53-1.25,4.21,4.21,0,0,0-1.3-.76,15.37,15.37,0,0,0-1.7-.57,9,9,0,0,1-1.68-.69,4.07,4.07,0,0,1-1.3-1.14,3.08,3.08,0,0,1-.53-1.88,2.91,2.91,0,0,1,.32-1.31,3.61,3.61,0,0,1,.88-1.15,4.53,4.53,0,0,1,1.37-.8,4.68,4.68,0,0,1,1.74-.31,4,4,0,0,1,1.59.31,4.08,4.08,0,0,1,1.31.86,3.76,3.76,0,0,1,.88,1.26,3.9,3.9,0,0,1,.31,1.55H87.06a2.43,2.43,0,0,0-.69-1.8,2.29,2.29,0,0,0-1.72-.72,3,3,0,0,0-1.07.19,2.86,2.86,0,0,0-.84.47,2.12,2.12,0,0,0-.53.67,1.79,1.79,0,0,0-.19.78,1.63,1.63,0,0,0,.53,1.28,4.88,4.88,0,0,0,1.3.75q.78.3,1.68.57a7.57,7.57,0,0,1,1.7.69,3.85,3.85,0,0,1,1.3,1.14,3,3,0,0,1,.53,1.86,3.1,3.1,0,0,1-.32,1.37A3.3,3.3,0,0,1,87.88,44a4.21,4.21,0,0,1-1.38.78A5.4,5.4,0,0,1,84.65,45.1Zm10.29,0a4.33,4.33,0,0,1-1.26-.16,4.16,4.16,0,0,1-.92-.4A3.27,3.27,0,0,1,92,44l-1,1L90,44l1.15-1.05a3,3,0,0,1-.31-.71,6.74,6.74,0,0,1-.24-.82,7.24,7.24,0,0,1-.08-1.09,5.34,5.34,0,0,1,.34-2,4.71,4.71,0,0,1,.94-1.51,4.51,4.51,0,0,1,1.41-1,4.21,4.21,0,0,1,1.72-.36,4,4,0,0,1,1.26.19,4.69,4.69,0,0,1,.92.4,3.51,3.51,0,0,1,.76.57l1.05-1.05.95,1.05-1.16,1a6.81,6.81,0,0,1,.32.71q.1.36.21.84a5.6,5.6,0,0,1-.26,3,4.58,4.58,0,0,1-.94,1.53,4.18,4.18,0,0,1-1.41,1A4.08,4.08,0,0,1,94.94,45.1Zm0-1.47a2.43,2.43,0,0,0,1-.23,2.53,2.53,0,0,0,.9-.69,3.06,3.06,0,0,0,.63-1.05,3.65,3.65,0,0,0,.26-1.38,2.26,2.26,0,0,0-.07-.53,4.45,4.45,0,0,0-.1-.48c-.06-.16-.11-.31-.15-.46l-4.3,4.09a3.14,3.14,0,0,0,.5.38,2.34,2.34,0,0,0,.55.25A2.39,2.39,0,0,0,94.94,43.63Zm1.79-6a4.67,4.67,0,0,0-.51-.36,2.17,2.17,0,0,0-.57-.25,2,2,0,0,0-.71-.12,2.43,2.43,0,0,0-1.07.25,2.53,2.53,0,0,0-.9.67,3.06,3.06,0,0,0-.63,1.07,3.72,3.72,0,0,0-.23,1.37,3.12,3.12,0,0,0,0,.54,4.57,4.57,0,0,0,.1.46l.17.46Zm4.72-2.1h1.15L103,36.6a3.88,3.88,0,0,1,.69-.57,4.6,4.6,0,0,1,.86-.4,3.52,3.52,0,0,1,1.18-.19H106V37h-.42a2.51,2.51,0,0,0-1.83.71,2.66,2.66,0,0,0-.69,1.92V45h-1.57Zm10.07,9.55a4.43,4.43,0,0,1-1.26-.16,4.16,4.16,0,0,1-.92-.4,3.27,3.27,0,0,1-.76-.59l-1,1-.94-1,1.15-1.05a3.54,3.54,0,0,1-.31-.71,6.81,6.81,0,0,1-.23-.82,6.08,6.08,0,0,1-.09-1.09,5.34,5.34,0,0,1,.34-2,4.89,4.89,0,0,1,.94-1.51,4.51,4.51,0,0,1,1.41-1,4.24,4.24,0,0,1,1.72-.36,4,4,0,0,1,1.26.19,4.8,4.8,0,0,1,.93.4,3.7,3.7,0,0,1,.75.57l1.05-1.05.95,1.05-1.16,1a6.81,6.81,0,0,1,.32.71q.1.36.21.84a5.6,5.6,0,0,1-.26,3,4.42,4.42,0,0,1-.94,1.53,4.18,4.18,0,0,1-1.41,1A4.08,4.08,0,0,1,111.52,45.1Zm0-1.47a2.37,2.37,0,0,0,1-.23,2.53,2.53,0,0,0,.9-.69,3.25,3.25,0,0,0,.64-1.05,3.85,3.85,0,0,0,.25-1.38,1.83,1.83,0,0,0-.07-.53,2.89,2.89,0,0,0-.1-.48c-.06-.16-.11-.31-.15-.46l-4.3,4.09a3.14,3.14,0,0,0,.5.38,2.34,2.34,0,0,0,.55.25A2.43,2.43,0,0,0,111.52,43.63Zm1.79-6a3.87,3.87,0,0,0-.51-.36,2.24,2.24,0,0,0-.56-.25,2,2,0,0,0-.72-.12,2.43,2.43,0,0,0-1.07.25,2.53,2.53,0,0,0-.9.67,3.06,3.06,0,0,0-.63,1.07,3.72,3.72,0,0,0-.23,1.37,3.12,3.12,0,0,0,0,.54,4.57,4.57,0,0,0,.1.46l.17.46Zm7.55,7.45a3.47,3.47,0,0,1-2.48-.84,3,3,0,0,1-1-2.09H119a1.71,1.71,0,0,0,.55,1,2,2,0,0,0,1.34.41,1.81,1.81,0,0,0,1.24-.39,1.33,1.33,0,0,0,.44-1,.86.86,0,0,0-.38-.78,2.59,2.59,0,0,0-.9-.42,10.58,10.58,0,0,0-1.2-.29,5.41,5.41,0,0,1-1.17-.42,2.58,2.58,0,0,1-.93-.78,2.45,2.45,0,0,1-.35-1.41,2.24,2.24,0,0,1,.23-1,2.78,2.78,0,0,1,.63-.89,3,3,0,0,1,1-.58,3.38,3.38,0,0,1,1.3-.24,3.23,3.23,0,0,1,2.33.8,2.91,2.91,0,0,1,.92,2h-1.57a1.56,1.56,0,0,0-.49-1,1.66,1.66,0,0,0-1.19-.37,1.7,1.7,0,0,0-1.16.39,1.15,1.15,0,0,0-.42.86.93.93,0,0,0,.36.8,3.41,3.41,0,0,0,.92.42l1.18.3a4.35,4.35,0,0,1,1.2.4,2.35,2.35,0,0,1,.9.79,2.29,2.29,0,0,1,.38,1.39,2.79,2.79,0,0,1-.23,1.11,3.23,3.23,0,0,1-.65.91,3.47,3.47,0,0,1-1,.61A4.31,4.31,0,0,1,120.86,45.1Zm8.71,0a2.37,2.37,0,0,1-1-.23,2.77,2.77,0,0,1-.86-.63,3.18,3.18,0,0,1-.61-1,3.85,3.85,0,0,1-.21-1.3V37h-1.68V35.55h.73a1,1,0,0,0,1.16-1.15V33h1.36v2.52h2.1V37h-2.1V42a1.7,1.7,0,0,0,.42,1.23,1.55,1.55,0,0,0,1.16.44,1.53,1.53,0,0,0,.38,0,.35.35,0,0,0,.14-.06V44.9l-.23.1A2,2,0,0,1,129.57,45.1ZM132,38.91h5.77v1.47H132Zm8-7.14h1.47l6.62,10v-10h1.68V45h-1.47l-6.62-10V45H140ZM156.34,45.1a4.24,4.24,0,0,1-1.72-.35,4.62,4.62,0,0,1-1.41-1,5.12,5.12,0,0,1-.94-1.53,5.79,5.79,0,0,1,0-3.91,4.89,4.89,0,0,1,.94-1.51,4.51,4.51,0,0,1,1.41-1,4.24,4.24,0,0,1,1.72-.36,4.05,4.05,0,0,1,1.7.36,4.1,4.1,0,0,1,1.41,1,4.41,4.41,0,0,1,1,1.51,5.64,5.64,0,0,1,0,3.91,4.6,4.6,0,0,1-1,1.53,4.18,4.18,0,0,1-1.41,1A4,4,0,0,1,156.34,45.1Zm0-1.47a2.37,2.37,0,0,0,1-.23,2.65,2.65,0,0,0,.91-.69,3.41,3.41,0,0,0,.63-1.05,3.85,3.85,0,0,0,.25-1.38,3.71,3.71,0,0,0-.25-1.37,3.4,3.4,0,0,0-.63-1.07,2.48,2.48,0,0,0-.91-.67,2.26,2.26,0,0,0-1-.25,2.43,2.43,0,0,0-1.07.25,2.62,2.62,0,0,0-.9.67,3.06,3.06,0,0,0-.63,1.07,3.94,3.94,0,0,0-.23,1.37,4.08,4.08,0,0,0,.23,1.38,3.06,3.06,0,0,0,.63,1.05,2.82,2.82,0,0,0,.9.69A2.55,2.55,0,0,0,156.34,43.63Zm6.31-8.08h1.15l.42,1.05a3.62,3.62,0,0,1,.7-.57,4.07,4.07,0,0,1,.86-.4,3.46,3.46,0,0,1,1.17-.19h.21V37h-.42a2.47,2.47,0,0,0-1.82.71,2.62,2.62,0,0,0-.7,1.92V45h-1.57Zm9.86,13a4.53,4.53,0,0,1-1.47-.23,3.33,3.33,0,0,1-1.13-.61,3.72,3.72,0,0,1-.82-.9,3.89,3.89,0,0,1-.46-1.09h1.57a2.42,2.42,0,0,0,.76.94,2.45,2.45,0,0,0,1.55.42,2.66,2.66,0,0,0,1.92-.69,2.34,2.34,0,0,0,.71-1.72V43.42a3.29,3.29,0,0,1-.65.64,4.88,4.88,0,0,1-.86.44,3.68,3.68,0,0,1-1.22.19,4.41,4.41,0,0,1-1.7-.34,4.32,4.32,0,0,1-1.37-1,4.51,4.51,0,0,1-.9-1.44,5.3,5.3,0,0,1-.34-1.9,5,5,0,0,1,.34-1.86,4.11,4.11,0,0,1,2.27-2.42,4.41,4.41,0,0,1,1.7-.34,3.68,3.68,0,0,1,1.22.19,3.85,3.85,0,0,1,.86.4,3.28,3.28,0,0,1,.65.57l.42-1.05h1.15v9.14a3.89,3.89,0,0,1-1.15,2.77,3.93,3.93,0,0,1-1.32.82A5,5,0,0,1,172.51,48.57Zm0-5.35a2.53,2.53,0,0,0,1.1-.24,2.61,2.61,0,0,0,.9-.63,3,3,0,0,0,.61-1,3.68,3.68,0,0,0,.23-1.31,3.47,3.47,0,0,0-.23-1.28,2.63,2.63,0,0,0-.61-1,2.68,2.68,0,0,0-2-.88,2.63,2.63,0,0,0-1.11.23,2.83,2.83,0,0,0-.9.65,2.92,2.92,0,0,0-.61,1,3.7,3.7,0,0,0-.21,1.28,3.91,3.91,0,0,0,.21,1.31,3.38,3.38,0,0,0,.61,1,2.93,2.93,0,0,0,.9.63A2.64,2.64,0,0,0,172.51,43.22Zm10.6,1.88a4.32,4.32,0,0,1-1.76-.35,4.67,4.67,0,0,1-1.45-1,4.81,4.81,0,0,1-1-1.53,5.54,5.54,0,0,1-.33-1.95,5.14,5.14,0,0,1,.36-2,5,5,0,0,1,1-1.51,4.51,4.51,0,0,1,1.41-1,4,4,0,0,1,1.66-.36,4.19,4.19,0,0,1,1.64.34,4.06,4.06,0,0,1,1.38,1,4.24,4.24,0,0,1,.93,1.49,5,5,0,0,1,.35,1.93,1.94,1.94,0,0,1,0,.36c0,.09,0,.18,0,.25s0,.16,0,.23h-6.93a3,3,0,0,0,.27,1,3.3,3.3,0,0,0,.63.84,3.13,3.13,0,0,0,.88.58,2.84,2.84,0,0,0,1.89.09,3.31,3.31,0,0,0,.65-.29,3,3,0,0,0,.49-.36,3.27,3.27,0,0,0,.33-.38h1.68a5.56,5.56,0,0,1-.58,1,3.86,3.86,0,0,1-.87.84,4.62,4.62,0,0,1-1.13.59A4.75,4.75,0,0,1,183.11,45.1Zm2.63-5.45a3.62,3.62,0,0,0-.34-1.1,2.64,2.64,0,0,0-.61-.86,2.7,2.7,0,0,0-.81-.57,2.45,2.45,0,0,0-1.94,0,3.28,3.28,0,0,0-.84.57,3.41,3.41,0,0,0-.61.86,4.25,4.25,0,0,0-.31,1.1Z"/><path class="cls-2" d="M55,28A27,27,0,1,1,28,1,27,27,0,0,1,55,28Zm1,0A28,28,0,1,1,28,0,28,28,0,0,1,56,28ZM14.75,41.24V29.3l2.83,2.32,11.71,9.62ZM40.28,14.76v10.7L37.76,23.4l-10.5-8.64Zm1,15.65a6.25,6.25,0,0,1,.23.77h0a8.22,8.22,0,0,1,.27,2,7.47,7.47,0,0,1-1.31,4.41,7.88,7.88,0,0,1-3.65,2.85,9.75,9.75,0,0,1-1.83.51,20.08,20.08,0,0,1-2.32.15L32.55,41,18.48,29.48a11.18,11.18,0,0,1-2.88-3.17,5.79,5.79,0,0,1-.34-.71q-.12-.39-.21-.78a8.29,8.29,0,0,1-.27-2,7.57,7.57,0,0,1,1.31-4.42,7.9,7.9,0,0,1,3.66-2.84,9.65,9.65,0,0,1,1.82-.51,18.11,18.11,0,0,1,2.33-.15l.23.19L38.06,26.53a11.58,11.58,0,0,1,2.88,3.16C41.06,29.93,41.17,30.16,41.27,30.41Z"/><path class="cls-2" d="M28,54.5A26.5,26.5,0,1,0,1.5,28,26.49,26.49,0,0,0,28,54.5ZM28,56A28,28,0,1,0,0,28,28,28,0,0,0,28,56Z"/></svg>